<?xml version="1.0" standalone="no"?>
<!DOCTYPE svg PUBLIC "-//W3C//DTD SVG 20010904//EN"
 "http://www.w3.org/TR/2001/REC-SVG-20010904/DTD/svg10.dtd">
<svg version="1.0" xmlns="http://www.w3.org/2000/svg"
 width="1080.000000pt" height="682.000000pt" viewBox="0 0 1080.000000 682.000000"
 preserveAspectRatio="xMidYMid meet">
<g transform="translate(0.000000,682.000000) scale(0.100000,-0.100000)"
fill="#000000" stroke="none">
<path d="M6169 4863 c-12 -16 -12 -17 2 -6 9 7 20 9 24 5 5 -4 5 -1 1 6 -9 16
-11 15 -27 -5z"/>
<path d="M6099 4677 c-790 -939 -1432 -1696 -1444 -1701 -37 -14 -334 -28
-475 -22 l-154 6 -24 30 -24 30 -60 -54 c-150 -136 -417 -209 -593 -162 -145
38 -222 122 -246 265 -9 54 -6 65 88 358 53 167 95 305 92 307 -2 2 -87 61
-189 130 -159 109 -186 124 -192 109 -4 -10 -37 -97 -74 -193 -36 -96 -111
-291 -165 -432 -113 -294 -135 -390 -125 -541 12 -181 60 -294 175 -407 120
-119 252 -178 456 -201 185 -22 422 16 612 97 l88 38 488 7 c269 4 489 8 491
10 8 10 1391 1710 1537 1888 l166 205 -135 205 c-74 113 -135 207 -137 209 -1
1 -72 -80 -156 -181z m161 137 c0 -16 -32 -59 -110 -149 -47 -55 -206 -239
-351 -410 -146 -170 -342 -401 -437 -512 -95 -112 -170 -208 -167 -213 4 -6 1
-9 -5 -8 -7 2 -61 -55 -121 -126 -95 -111 -108 -131 -97 -145 11 -14 11 -14
-3 -3 -14 11 -29 -3 -115 -104 -55 -64 -98 -123 -98 -131 1 -8 0 -12 -3 -9 -4
3 -23 -10 -45 -29 -21 -19 -43 -35 -48 -35 -6 0 -10 -4 -10 -10 0 -5 7 -6 17
-3 12 5 14 3 8 -7 -5 -9 -4 -11 4 -6 6 4 8 12 5 18 -4 6 -1 9 6 6 12 -4 76 57
79 75 2 12 45 52 54 49 5 -1 6 2 3 7 -3 5 1 11 9 15 8 3 15 13 15 22 0 14 2
15 18 3 15 -12 15 -12 5 1 -9 12 -2 25 38 70 27 30 49 51 49 46 0 -5 6 -3 14
4 8 6 13 17 11 23 -7 20 22 50 41 43 14 -5 15 -4 4 9 -9 11 -9 15 -1 15 6 0
17 11 23 25 6 14 17 24 24 21 7 -3 15 2 18 10 3 8 1 12 -4 9 -5 -3 -7 1 -4 9
3 8 12 12 20 9 8 -3 14 -1 12 5 -6 18 43 74 59 68 14 -6 14 -4 2 11 -10 12
-10 14 -1 9 8 -5 17 4 27 28 9 20 22 36 30 36 7 0 17 5 21 12 5 7 2 9 -7 4 -8
-4 -3 2 11 14 14 12 18 19 10 15 -8 -4 -4 2 10 13 13 11 28 18 32 15 5 -2 7 1
6 9 -2 7 2 12 9 11 7 -2 10 3 7 11 -3 8 0 17 7 22 8 5 10 3 4 -6 -5 -9 -4 -11
4 -6 6 4 9 11 7 15 -3 4 13 26 35 51 21 24 39 47 39 52 0 5 4 6 10 3 6 -4 7 1
3 11 -5 14 -3 16 12 10 11 -4 16 -4 12 0 -11 12 84 125 116 137 10 4 15 11 12
17 -3 5 10 26 29 46 20 21 36 41 36 46 0 5 5 6 12 2 6 -4 8 -3 4 4 -3 6 4 18
16 27 13 8 23 21 23 28 1 6 7 11 14 9 7 -1 10 2 6 8 -3 5 -1 10 6 10 7 0 10 3
7 6 -8 8 42 55 52 49 5 -3 12 0 16 6 4 8 3 9 -4 5 -22 -14 -12 6 13 26 14 11
23 23 20 28 -3 5 12 27 33 49 22 23 37 41 34 41 -3 0 8 10 24 22 28 22 36 32
35 42 0 3 18 24 39 46 22 23 40 46 40 51 0 5 3 8 8 7 4 -2 7 -1 7 2 1 7 32 44
73 86 17 19 32 39 32 45 0 5 4 8 9 4 5 -3 12 -1 16 5 4 6 10 8 15 5 12 -7 24
15 25 45 0 15 6 24 14 22 7 -1 10 2 6 8 -3 5 -2 10 3 10 6 0 8 10 5 23 -4 14
-2 18 4 12 19 -20 93 -135 93 -145 0 -5 3 -10 8 -10 10 0 48 -71 44 -83 -1 -5
2 -6 8 -2 5 3 13 -2 17 -12 4 -10 19 -35 34 -56 l28 -39 -20 -21 c-12 -12 -27
-35 -35 -50 -9 -16 -20 -25 -26 -21 -7 4 -8 3 -4 -5 4 -6 0 -14 -8 -17 -9 -3
-16 -13 -16 -21 0 -9 -6 -13 -14 -10 -11 4 -13 1 -9 -10 4 -11 2 -14 -5 -9 -7
4 -12 1 -12 -6 0 -14 -141 -195 -202 -260 -10 -10 -15 -18 -11 -18 4 0 -2 -6
-13 -14 -14 -11 -21 -11 -27 -3 -6 8 -7 5 -3 -6 6 -19 -17 -51 -28 -39 -4 3
-4 -1 -1 -9 7 -19 -20 -45 -30 -29 -3 5 -1 10 6 10 7 0 10 3 6 6 -3 3 -11 3
-17 -1 -8 -5 -8 -10 0 -20 8 -10 7 -19 -6 -34 -10 -11 -22 -17 -27 -14 -6 3
-7 1 -4 -4 4 -6 0 -16 -8 -23 -8 -7 -12 -17 -8 -24 3 -6 3 -8 -1 -4 -5 4 -24
-14 -44 -40 -41 -55 -52 -64 -71 -57 -11 4 -11 2 -2 -9 9 -11 6 -21 -16 -47
-15 -19 -31 -35 -35 -37 -5 -2 -8 -9 -8 -16 0 -18 -60 -67 -73 -59 -7 3 -9 3
-5 -2 4 -4 2 -15 -4 -24 -8 -10 -3 -8 12 4 l25 20 -24 -27 c-13 -15 -28 -25
-33 -22 -5 3 -7 0 -6 -8 2 -7 -4 -12 -12 -10 -8 2 -12 1 -8 -3 4 -4 0 -14 -8
-22 -8 -8 -12 -19 -9 -23 3 -5 -3 -7 -14 -5 -15 3 -18 0 -14 -13 6 -15 5 -16
-13 -2 -18 14 -18 14 -5 -2 12 -16 9 -22 -20 -55 -18 -21 -37 -37 -42 -35 -5
1 -6 -2 -3 -7 4 -5 0 -13 -8 -18 -8 -4 -15 -12 -17 -18 -3 -17 -33 -51 -51
-58 -10 -3 -18 -13 -18 -22 0 -8 -8 -23 -17 -33 -72 -77 -96 -104 -84 -97 10
6 12 4 7 -4 -5 -7 -14 -10 -22 -7 -8 3 -11 0 -7 -10 3 -7 -1 -14 -8 -14 -7 0
-9 -3 -6 -7 4 -3 -7 -19 -23 -35 -31 -29 -39 -45 -17 -32 6 4 10 5 7 1 -3 -3
-9 -6 -15 -7 -19 -3 -45 -33 -38 -44 3 -6 3 -8 -1 -4 -11 10 -78 -81 -70 -94
4 -6 3 -8 -4 -4 -6 3 -17 -1 -24 -9 -7 -9 -25 -28 -40 -44 -15 -16 -24 -32
-20 -36 4 -5 -2 -5 -13 -1 -11 4 -16 4 -13 0 11 -10 -12 -45 -24 -38 -6 4 -8
3 -5 -3 6 -9 -66 -103 -85 -111 -5 -2 -8 -9 -8 -16 0 -6 -8 -19 -17 -27 -20
-18 -61 -66 -83 -98 -14 -20 -23 -22 -115 -21 -55 0 -269 -2 -475 -5 -349 -5
-379 -7 -427 -26 -31 -12 -50 -26 -46 -32 3 -6 1 -7 -5 -3 -14 9 -63 -4 -57
-14 3 -5 -6 -7 -20 -6 -14 2 -35 -2 -48 -9 -13 -6 -37 -15 -53 -19 -29 -8 -41
-10 -118 -20 -21 -3 -48 -8 -60 -12 -30 -10 -285 -11 -279 -1 3 5 -1 7 -8 6
-22 -5 -149 22 -155 32 -3 5 -11 9 -19 9 -8 0 -26 5 -42 12 -15 6 -32 10 -36
10 -4 -1 -10 5 -13 13 -4 8 -15 15 -25 15 -10 0 -19 4 -19 8 0 11 -51 36 -65
33 -5 -2 -7 0 -3 4 4 4 -6 21 -22 39 -17 17 -30 36 -30 42 0 7 -6 11 -12 10
-7 0 -13 1 -13 4 0 3 -10 19 -21 35 -30 42 -62 115 -78 177 -19 74 -20 238 -1
333 13 68 105 324 190 529 14 32 22 62 19 67 -3 5 0 9 6 9 6 0 9 4 6 8 -3 5 1
20 9 35 7 14 11 28 7 31 -3 3 0 6 7 6 7 0 10 4 6 9 -3 5 -1 12 5 16 6 4 8 10
5 15 -3 5 2 15 11 24 8 9 12 20 9 26 -3 5 -1 10 5 10 7 0 10 7 6 15 -3 8 -1
15 5 15 6 0 7 5 4 10 -3 6 -2 10 4 10 6 0 7 7 4 17 -4 10 -2 14 4 10 7 -5 9 1
5 15 -3 13 -1 19 5 15 6 -4 11 -1 10 6 -2 50 2 49 161 -59 186 -127 192 -132
185 -150 -3 -8 -8 -12 -12 -10 -3 2 -7 -6 -8 -17 -3 -34 -31 -133 -57 -202 -6
-16 -11 -35 -12 -42 -1 -7 -23 -77 -49 -155 l-47 -143 12 -70 c6 -38 12 -78
13 -87 1 -10 6 -18 11 -18 5 0 7 -3 3 -6 -3 -4 -1 -12 6 -19 64 -66 92 -105
65 -89 -7 4 -9 3 -5 -1 4 -5 13 -10 20 -11 26 -4 42 -9 47 -15 14 -15 122 -49
176 -54 109 -12 270 22 385 80 59 29 130 77 149 100 7 9 21 20 31 25 24 13 33
-14 11 -32 -15 -12 -16 -11 -3 5 17 22 -2 23 -20 1 -8 -9 -42 -36 -76 -59 -35
-23 -60 -45 -55 -50 4 -5 2 -5 -4 -2 -7 4 -36 -4 -67 -18 -30 -14 -87 -34
-127 -44 -64 -16 -69 -19 -41 -23 17 -3 34 -1 37 3 2 4 13 6 24 4 11 -2 20 1
20 7 0 5 6 8 14 5 7 -3 19 0 25 6 6 6 21 12 33 14 12 2 25 7 28 12 3 4 22 14
42 20 20 7 38 17 41 24 2 6 15 12 30 12 15 1 26 4 25 7 -5 10 34 48 43 42 5
-3 9 -2 9 3 0 4 14 16 30 25 23 13 32 14 35 5 7 -16 572 -5 627 12 46 14 12
-24 629 706 282 335 598 707 694 819 33 39 60 73 60 76 0 3 11 17 25 31 14 14
39 42 55 63 17 20 41 48 55 62 14 14 25 29 25 32 0 11 59 82 68 82 4 0 7 -3 7
-6z m-39 -118 c-1 -3 -4 -6 -8 -7 -5 0 -15 -6 -23 -12 -8 -6 -6 -2 4 11 17 20
29 23 27 8z"/>
<path d="M5879 4303 c-13 -16 -12 -17 4 -4 16 13 21 21 13 21 -2 0 -10 -8 -17
-17z"/>
<path d="M5656 4041 c-3 -5 1 -11 9 -14 9 -4 12 -1 8 9 -6 16 -10 17 -17 5z"/>
<path d="M2865 3807 c-26 -67 -80 -205 -120 -307 -41 -102 -93 -237 -118 -300
-44 -115 -65 -204 -50 -213 4 -3 9 11 10 31 1 19 5 38 10 41 8 6 13 26 16 63
1 11 5 14 12 8 7 -6 10 0 9 18 -1 15 7 44 17 64 11 21 19 44 19 53 0 9 5 13
11 10 6 -4 9 -1 7 6 -1 8 12 50 29 94 33 85 44 117 44 125 0 3 7 15 15 28 8
12 12 28 8 34 -4 7 -3 8 4 4 8 -4 12 0 12 12 0 11 9 31 20 45 12 15 16 27 9
29 -6 2 -3 13 9 28 10 14 17 31 14 39 -3 9 0 11 7 6 8 -4 11 -2 10 6 -4 23 13
72 37 110 13 20 20 40 16 43 -3 4 -1 10 5 14 8 5 7 10 -2 19 -11 10 -22 -12
-60 -110z"/>
<path d="M5956 3823 c-6 -14 -5 -15 5 -6 7 7 10 15 7 18 -3 3 -9 -2 -12 -12z"/>
<path d="M5604 3434 c0 -23 11 -24 11 -1 1 7 7 11 15 9 8 -2 11 0 7 4 -16 17
-33 11 -33 -12z"/>
<path d="M5106 3313 c-6 -14 -5 -15 5 -6 7 7 10 15 7 18 -3 3 -9 -2 -12 -12z"/>
<path d="M5011 3247 c-13 -21 -12 -21 5 -5 10 10 16 20 13 22 -3 3 -11 -5 -18
-17z"/>
<path d="M4856 3082 c-3 -5 1 -9 9 -9 8 0 12 4 9 9 -3 4 -7 8 -9 8 -2 0 -6 -4
-9 -8z"/>
<path d="M2563 2935 c0 -27 2 -38 4 -22 2 15 2 37 0 50 -2 12 -4 0 -4 -28z"/>
<path d="M4535 2921 c-11 -5 -36 -6 -55 -4 -24 3 -31 2 -22 -5 17 -12 81 -7
95 7 13 13 10 13 -18 2z"/>
<path d="M4570 2923 c0 -5 16 -8 35 -9 18 0 32 3 29 8 -6 10 -64 11 -64 1z"/>
<path d="M4378 2903 c7 -3 16 -2 19 1 4 3 -2 6 -13 5 -11 0 -14 -3 -6 -6z"/>
<path d="M2561 2754 c0 -11 3 -14 6 -6 3 7 2 16 -1 19 -3 4 -6 -2 -5 -13z"/>
<path d="M3463 2743 c15 -2 37 -2 50 0 12 2 0 4 -28 4 -27 0 -38 -2 -22 -4z"/>
<path d="M2776 2402 c-3 -5 1 -9 9 -9 8 0 12 4 9 9 -3 4 -7 8 -9 8 -2 0 -6 -4
-9 -8z"/>
<path d="M6330 4796 c0 -2 8 -10 18 -17 15 -13 16 -12 3 4 -13 16 -21 21 -21
13z"/>
<path d="M3095 4583 c-63 -162 -166 -446 -163 -453 2 -6 89 -61 193 -124 179
-108 190 -114 196 -93 4 12 41 120 82 239 57 165 72 218 62 222 -8 3 -91 55
-184 115 -94 61 -172 111 -175 111 -2 0 -7 -8 -11 -17z m187 -119 c187 -122
175 -113 163 -122 -6 -4 -16 -23 -23 -42 -12 -32 -16 -44 -27 -90 -2 -8 -4
-16 -4 -17 -1 -2 -1 -6 -2 -10 0 -5 -5 -14 -11 -20 -6 -7 -8 -13 -4 -13 3 0
-4 -24 -15 -52 -12 -29 -26 -68 -31 -86 -6 -21 -13 -30 -21 -25 -9 5 -8 3 0
-9 11 -12 10 -18 -5 -31 -17 -15 -20 -15 -42 1 -13 9 -43 28 -67 42 -23 14
-87 52 -140 85 -54 32 -99 59 -100 60 -1 0 0 11 4 23 3 12 9 19 14 16 5 -3 6
2 3 10 -3 9 -1 16 5 16 6 0 8 7 4 17 -5 12 -3 14 7 8 9 -5 11 -4 6 4 -10 16 3
53 16 45 6 -4 8 1 3 16 -5 14 -3 20 3 16 6 -4 8 2 4 16 -4 16 -2 19 8 13 9 -5
11 -4 6 4 -10 16 3 53 16 45 7 -4 8 -2 4 5 -10 16 3 53 16 45 6 -4 8 1 3 16
-5 14 -3 20 3 16 6 -4 8 2 4 16 -3 14 -1 19 6 14 8 -5 10 -2 6 8 -3 9 -1 16 6
16 6 0 9 4 6 9 -6 9 2 41 10 41 2 0 77 -48 166 -106z"/>
<path d="M3127 4527 c-106 -280 -130 -347 -133 -372 -3 -22 -1 -26 6 -15 5 8
10 24 10 35 0 16 2 17 9 6 7 -10 9 -8 9 10 -1 25 57 189 70 199 4 3 9 12 11
20 2 8 4 20 6 25 2 11 12 39 25 72 5 12 5 25 1 28 -5 3 -11 -1 -14 -8z"/>
<path d="M3230 4006 c0 -2 7 -7 16 -10 8 -3 12 -2 9 4 -6 10 -25 14 -25 6z"/>
<path d="M3400 4497 c0 -2 6 -10 14 -16 11 -9 16 -9 22 1 4 7 4 10 -1 6 -4 -4
-14 -3 -22 3 -7 6 -13 9 -13 6z"/>
<path d="M5020 4275 c-223 -12 -439 -28 -480 -35 -517 -85 -878 -310 -1078
-671 -73 -134 -127 -328 -134 -484 l-3 -80 65 -23 c52 -18 79 -22 134 -18 106
8 180 48 292 160 l91 91 11 95 c20 169 98 277 253 355 143 73 141 72 524 80
l347 8 136 156 c75 86 183 209 239 274 l104 117 -48 -1 c-26 -1 -230 -12 -453
-24z m436 -14 c-10 -11 -25 -17 -34 -14 -12 3 -14 2 -4 -4 9 -7 5 -17 -18 -41
-17 -18 -28 -32 -25 -32 3 0 -14 -20 -37 -45 -24 -24 -61 -66 -83 -92 -22 -26
-60 -70 -85 -98 -25 -29 -65 -75 -89 -102 l-43 -51 -182 -6 c-99 -4 -259 -9
-355 -11 -100 -3 -179 -9 -186 -15 -7 -6 -26 -12 -43 -13 -16 -1 -28 -5 -25
-9 2 -5 -4 -8 -14 -8 -10 0 -37 -11 -60 -24 -31 -18 -44 -21 -53 -12 -8 8 -10
7 -5 -6 4 -11 0 -18 -12 -22 -19 -6 -144 -122 -138 -128 2 -2 -5 -14 -15 -28
-19 -25 -19 -25 -15 -2 2 12 0 20 -4 18 -4 -3 -7 -18 -6 -33 1 -15 -7 -48 -17
-72 -10 -25 -21 -71 -24 -104 -2 -32 -6 -64 -7 -70 -3 -18 -21 -35 -31 -29 -5
3 -6 1 -3 -5 8 -12 -40 -67 -67 -76 -10 -4 -16 -13 -13 -20 3 -8 0 -14 -7 -14
-20 0 -66 -35 -60 -45 4 -6 -3 -5 -16 2 -20 11 -21 10 -9 -12 l12 -23 -23 20
c-13 11 -21 16 -18 10 7 -11 -10 -28 -32 -33 -89 -21 -130 -21 -194 -2 -77 24
-76 20 -51 180 26 175 87 327 187 472 50 72 172 208 186 208 4 0 26 17 50 39
23 21 42 36 42 32 0 -3 7 3 15 13 8 11 15 16 15 12 0 -5 15 3 34 18 19 14 38
26 41 26 4 0 13 7 22 15 8 8 19 13 24 10 5 -4 9 -1 9 5 0 6 5 8 10 5 6 -3 10
-1 10 5 0 6 5 8 10 5 6 -3 10 -1 10 5 0 6 5 8 10 5 6 -3 10 -1 10 6 0 7 3 10
6 6 4 -3 13 1 21 9 9 8 22 13 29 10 8 -3 14 -2 14 3 0 8 41 24 65 25 6 1 12 4
15 7 11 12 71 28 87 22 12 -5 14 -3 8 7 -6 10 -3 12 13 8 12 -4 22 -2 22 4 0
6 9 8 20 5 11 -3 20 -2 20 2 0 7 130 35 220 47 35 5 441 29 859 53 23 1 23 0
7 -18z"/>
<path d="M5348 4244 c-2 -1 -53 -5 -113 -8 -61 -3 -146 -7 -190 -10 -44 -2
-145 -7 -225 -11 -270 -12 -486 -54 -688 -133 -117 -46 -235 -109 -227 -122 3
-6 0 -8 -7 -5 -22 9 -188 -125 -268 -216 -111 -127 -209 -317 -234 -459 l-7
-35 16 33 c9 20 19 31 26 26 7 -4 7 1 -1 17 -10 17 -10 24 -1 27 6 2 9 8 6 12
-8 13 40 112 50 103 4 -5 5 -2 1 5 -4 7 -2 19 4 27 7 8 9 15 5 15 -5 0 2 9 14
19 12 11 21 21 20 23 -6 7 26 66 33 62 4 -3 8 0 8 6 0 6 5 8 13 4 7 -5 6 0 -3
11 -13 17 -13 18 1 13 9 -3 16 -1 16 6 0 18 34 66 43 61 5 -3 11 4 15 15 3 11
11 20 16 20 6 0 8 3 6 8 -2 4 4 15 14 24 13 12 19 13 23 5 3 -7 7 -4 11 8 8
25 122 117 190 153 28 15 53 31 56 36 10 13 87 45 93 38 3 -3 6 0 6 6 0 7 11
12 24 12 13 0 26 5 28 10 2 6 12 12 23 14 11 2 42 14 68 25 27 12 54 18 59 14
7 -3 8 -1 4 5 -8 13 1 14 67 15 21 0 33 3 27 7 -22 13 296 67 400 68 19 0 78
3 130 7 136 8 193 9 221 1 18 -6 20 -5 9 3 -12 8 -8 11 20 13 45 2 59 1 90 -6
21 -5 22 -5 5 3 -18 8 31 13 127 12 10 0 20 4 23 8 4 8 -40 13 -47 5z"/>
<path d="M5287 4169 c7 -7 15 -10 18 -7 3 3 -2 9 -12 12 -14 6 -15 5 -6 -5z"/>
<path d="M3984 3982 c3 -5 1 -12 -6 -14 -8 -3 -9 -6 -1 -11 6 -4 13 0 17 8 3
8 0 17 -6 21 -6 4 -8 3 -4 -4z"/>
<path d="M3835 3891 c-3 -5 -2 -12 3 -15 5 -3 9 1 9 9 0 17 -3 19 -12 6z"/>
<path d="M3382 3228 c0 -7 -3 -31 -6 -53 l-6 -40 14 45 c9 25 12 48 7 53 -4 4
-8 2 -9 -5z"/>
<path d="M3366 3105 c-3 -9 -6 -29 -5 -43 1 -22 3 -19 10 12 10 40 6 60 -5 31z"/>
<path d="M6454 4284 c-18 -14 -18 -15 4 -4 12 6 22 13 22 15 0 8 -5 6 -26 -11z"/>
<path d="M6364 3958 c-347 -425 -680 -833 -1013 -1243 -162 -198 -299 -367
-307 -375 -11 -13 141 -15 1364 -18 757 -2 1385 -6 1396 -9 11 -3 17 -1 15 6
-7 20 -1204 1931 -1210 1931 -3 0 -114 -132 -245 -292z m239 222 c-10 -15 -71
-93 -137 -172 -65 -78 -125 -152 -135 -163 -9 -11 -48 -59 -87 -105 -117 -141
-483 -584 -564 -685 -30 -37 -91 -111 -135 -164 -342 -410 -415 -502 -408
-515 4 -5 1 -6 -5 -2 -6 3 -13 2 -17 -4 -3 -5 -11 -10 -18 -10 -6 0 3 15 20
33 16 17 214 257 439 532 224 275 490 600 591 722 101 123 183 225 183 227 0
3 10 16 23 29 12 13 38 43 57 66 19 24 41 49 48 57 7 8 10 14 6 14 -4 0 5 9
20 21 14 11 24 24 21 29 -3 5 6 17 20 28 14 11 25 23 25 26 0 4 12 22 27 41
32 40 52 36 26 -5z m41 -42 c-4 -6 -3 -8 3 -5 6 4 54 -64 114 -161 56 -92 109
-175 117 -184 8 -10 12 -24 9 -33 -4 -8 -2 -14 4 -12 10 2 74 -94 211 -318 23
-38 47 -73 52 -76 14 -10 -2 -42 -16 -33 -7 4 -9 3 -5 -1 12 -14 38 -15 31 -2
-12 22 44 -48 62 -77 12 -21 13 -27 3 -22 -8 4 -6 1 5 -8 10 -8 16 -18 13 -23
-3 -4 1 -17 9 -28 8 -10 14 -14 14 -9 0 6 -6 16 -12 24 -11 12 -10 12 5 1 9
-7 17 -20 17 -27 0 -8 4 -14 9 -14 5 0 12 -7 15 -16 5 -12 3 -14 -7 -8 -7 5
-6 2 3 -6 9 -8 19 -22 23 -30 13 -28 32 -55 44 -63 7 -4 10 -14 7 -21 -3 -7 2
-16 10 -19 9 -4 16 -13 16 -22 0 -8 6 -15 13 -16 9 0 9 -2 0 -5 -7 -3 -1 -15
16 -32 16 -15 27 -35 25 -45 -1 -9 2 -15 6 -12 5 3 11 -4 15 -15 3 -11 11 -20
17 -20 6 0 8 -3 5 -7 -4 -3 0 -15 10 -25 9 -10 13 -18 8 -18 -4 0 -2 -7 5 -15
7 -8 17 -12 23 -8 6 3 7 1 3 -5 -4 -7 -2 -12 4 -12 6 0 9 -4 5 -9 -3 -6 2 -14
11 -19 9 -5 15 -12 14 -16 -2 -14 45 -104 52 -100 4 3 8 1 8 -5 0 -5 -4 -13
-10 -16 -5 -3 -10 -12 -10 -18 0 -8 4 -7 9 2 8 12 11 12 25 -1 8 -9 12 -18 9
-22 -4 -3 -1 -6 5 -6 7 0 12 -6 12 -13 0 -7 9 -23 20 -35 11 -12 21 -25 22
-29 5 -27 11 -43 18 -43 4 0 11 -7 14 -15 5 -14 -124 -16 -1279 -14 -870 1
-1282 5 -1278 12 4 6 1 7 -8 1 -8 -5 -25 -10 -39 -11 -19 -3 -22 -1 -10 6 8 6
15 15 15 21 0 5 5 10 10 9 6 0 12 10 15 22 3 12 12 25 19 27 9 3 11 0 6 -8 -5
-9 -4 -11 4 -6 9 6 9 11 -1 24 -11 13 -10 15 5 9 11 -4 16 -3 12 3 -7 12 104
136 118 132 5 -1 6 2 2 7 -6 11 48 86 91 126 15 14 23 25 18 25 -5 0 2 7 14
16 12 8 26 13 31 9 5 -3 13 -1 16 5 4 6 1 9 -6 8 -6 -2 -14 3 -17 11 -3 10 0
12 12 8 8 -3 15 -3 14 1 -4 14 33 72 42 67 6 -4 10 0 10 7 0 7 21 36 46 63 46
51 91 103 120 140 8 11 12 14 8 6 -5 -9 -3 -12 5 -7 6 4 9 11 7 15 -9 14 25
53 41 47 8 -3 12 -2 8 3 -7 12 5 41 17 41 6 0 4 -8 -3 -17 -13 -16 -12 -17 3
-4 10 7 15 18 12 23 -3 5 6 23 22 39 15 16 24 29 19 29 -4 0 8 16 29 36 20 19
40 33 45 30 5 -3 15 2 22 12 13 15 12 16 -3 3 -10 -7 -18 -11 -18 -8 0 9 41
77 47 77 2 0 1 -5 -3 -12 -4 -7 -3 -8 4 -4 7 4 12 13 12 20 0 7 10 24 21 37
12 13 37 43 56 66 19 24 39 41 43 38 5 -3 12 0 16 6 4 8 3 9 -4 5 -20 -12 -13
1 14 31 14 15 37 28 49 28 13 1 28 4 32 9 4 4 4 7 -2 6 -22 -5 -35 1 -35 16 0
8 5 12 10 9 6 -3 10 -1 10 6 0 15 39 59 52 59 5 0 6 -5 2 -12 -4 -7 -3 -8 4
-4 6 4 9 13 6 21 -3 7 3 22 15 31 11 10 17 22 14 27 -3 6 -1 7 5 3 7 -4 12 -1
12 7 0 20 120 153 134 149 6 -2 8 0 4 4 -10 9 51 86 63 78 5 -3 9 -2 8 3 -3
19 2 46 8 40 6 -7 73 90 73 107 0 6 7 0 16 -12 8 -12 12 -27 8 -34z"/>
<path d="M6345 3819 c-4 -6 -5 -12 -2 -15 2 -3 7 2 10 11 7 17 1 20 -8 4z"/>
<path d="M6393 3393 c-44 -54 -85 -97 -92 -95 -7 1 -10 -1 -7 -6 7 -12 -54
-93 -65 -87 -5 4 -7 0 -4 -7 2 -7 -14 -34 -38 -60 -23 -26 -53 -62 -67 -81
-14 -19 -28 -33 -32 -30 -5 2 -8 -2 -8 -9 0 -7 -17 -32 -38 -54 -77 -86 -104
-139 -73 -141 9 0 213 -3 454 -6 433 -4 438 -4 452 16 11 16 12 24 2 36 -10
12 -9 13 3 7 8 -5 3 2 -11 15 -14 13 -24 30 -21 38 3 8 0 11 -7 7 -7 -5 -9 -1
-5 8 3 9 9 14 13 11 4 -2 8 2 8 9 0 7 -6 13 -13 13 -7 0 -12 -3 -11 -6 1 -3
-1 -7 -5 -8 -5 -2 -8 0 -7 3 0 4 -4 10 -11 14 -6 4 -12 14 -14 22 -1 8 -9 23
-19 32 -9 10 -17 24 -17 32 0 9 -5 12 -12 8 -7 -5 -9 -2 -5 9 3 9 -1 18 -10
21 -9 4 -13 9 -10 12 2 3 -6 16 -19 29 -16 16 -22 30 -17 42 3 10 3 15 -2 11
-8 -8 -108 139 -108 159 0 7 -3 11 -6 9 -3 -2 -24 25 -46 60 -22 35 -43 64
-46 64 -3 0 -42 -44 -86 -97z m286 -251 l189 -302 -449 0 -449 0 83 99 c45 55
159 194 252 309 94 115 173 207 177 203 4 -4 93 -142 197 -309z"/>
<path d="M6419 3333 c-13 -16 -12 -17 4 -4 9 7 17 15 17 17 0 8 -8 3 -21 -13z"/>
<path d="M6495 3340 c-4 -6 -11 -7 -17 -4 -7 4 -8 2 -4 -5 6 -9 11 -9 22 0 14
11 18 19 10 19 -3 0 -8 -5 -11 -10z"/>
<path d="M6611 3353 c7 -12 15 -20 18 -17 3 2 -3 12 -13 22 -17 16 -18 16 -5
-5z"/>
<path d="M5879 3233 c-13 -17 -13 -17 6 -3 11 8 22 16 24 17 2 2 0 3 -6 3 -6
0 -17 -8 -24 -17z"/>
<path d="M6185 3190 c-8 -13 9 -20 24 -11 10 6 9 10 -3 14 -8 3 -18 2 -21 -3z"/>
<path d="M7220 3150 c-9 -6 -10 -10 -3 -10 6 0 15 5 18 10 8 12 4 12 -15 0z"/>
<path d="M5939 2873 c-13 -16 -12 -17 4 -4 9 7 17 15 17 17 0 8 -8 3 -21 -13z"/>
<path d="M6894 2841 c6 -10 -20 -35 -46 -44 -10 -4 -18 -12 -18 -19 0 -9 3 -9
12 0 7 7 18 12 26 12 7 0 20 6 28 14 16 17 19 46 3 46 -5 0 -8 -4 -5 -9z"/>
<path d="M6018 2793 c6 -2 18 -2 25 0 6 3 1 5 -13 5 -14 0 -19 -2 -12 -5z"/>
<path d="M6178 2793 c6 -2 18 -2 25 0 6 3 1 5 -13 5 -14 0 -19 -2 -12 -5z"/>
<path d="M6258 2793 c12 -2 32 -2 45 0 12 2 2 4 -23 4 -25 0 -35 -2 -22 -4z"/>
<path d="M6377 2793 c18 -2 50 -2 70 0 21 2 7 4 -32 4 -38 0 -55 -2 -38 -4z"/>
<path d="M6518 2793 c7 -3 16 -2 19 1 4 3 -2 6 -13 5 -11 0 -14 -3 -6 -6z"/>
<path d="M6587 2793 c18 -2 50 -2 70 0 21 2 7 4 -32 4 -38 0 -55 -2 -38 -4z"/>
<path d="M5257 2473 c3 -7 6 -13 8 -13 2 0 5 6 8 13 3 8 -1 14 -8 14 -7 0 -11
-6 -8 -14z"/>
<path d="M3695 3931 c-3 -5 -2 -12 3 -15 5 -3 9 1 9 9 0 17 -3 19 -12 6z"/>
<path d="M3060 3920 c-9 -6 -10 -10 -3 -10 6 0 15 5 18 10 8 12 4 12 -15 0z"/>
<path d="M6173 3815 c0 -8 4 -12 9 -9 5 3 6 10 3 15 -9 13 -12 11 -12 -6z"/>
<path d="M3474 3692 c3 -6 -2 -15 -11 -21 -10 -6 -13 -11 -7 -11 20 0 37 27
23 36 -7 4 -9 3 -5 -4z"/>
<path d="M5005 3451 c-3 -5 -2 -12 3 -15 5 -3 9 1 9 9 0 17 -3 19 -12 6z"/>
<path d="M5843 3435 c0 -7 6 -11 14 -8 7 3 13 6 13 8 0 2 -6 5 -13 8 -8 3 -14
-1 -14 -8z"/>
<path d="M4887 3355 c3 -8 9 -12 14 -9 12 7 11 11 -5 17 -10 4 -13 1 -9 -8z"/>
<path d="M5779 3343 c-13 -16 -12 -17 4 -4 16 13 21 21 13 21 -2 0 -10 -8 -17
-17z"/>
<path d="M5689 3203 c-13 -16 -12 -17 4 -4 16 13 21 21 13 21 -2 0 -10 -8 -17
-17z"/>
<path d="M3745 3001 c-3 -5 -2 -12 3 -15 5 -3 9 1 9 9 0 17 -3 19 -12 6z"/>
<path d="M3175 2961 c-3 -5 -2 -12 3 -15 5 -3 9 1 9 9 0 17 -3 19 -12 6z"/>
<path d="M5446 2952 c-3 -5 1 -9 9 -9 8 0 12 4 9 9 -3 4 -7 8 -9 8 -2 0 -6 -4
-9 -8z"/>
<path d="M7505 2891 c-3 -5 -2 -12 3 -15 5 -3 9 1 9 9 0 17 -3 19 -12 6z"/>
<path d="M7575 2790 c10 -11 20 -20 23 -20 3 0 -3 9 -13 20 -10 11 -20 20 -23
20 -3 0 3 -9 13 -20z"/>
<path d="M7630 2701 c0 -6 4 -13 10 -16 6 -3 7 1 4 9 -7 18 -14 21 -14 7z"/>
<path d="M5209 2623 c-13 -16 -12 -17 4 -4 9 7 17 15 17 17 0 8 -8 3 -21 -13z"/>
<path d="M2730 2306 c0 -2 8 -10 18 -17 15 -13 16 -12 3 4 -13 16 -21 21 -21
13z"/>
<path d="M7819 2283 c-13 -16 -12 -17 4 -4 16 13 21 21 13 21 -2 0 -10 -8 -17
-17z"/>
<path d="M5593 2155 c0 -8 4 -12 9 -9 5 3 6 10 3 15 -9 13 -12 11 -12 -6z"/>
<path d="M2480 1945 l0 -165 40 0 40 0 0 165 0 165 -40 0 -40 0 0 -165z m59 0
c0 -127 -1 -135 -20 -135 -18 0 -19 8 -19 104 0 120 7 166 26 166 10 0 13 -31
13 -135z"/>
<path d="M4180 1946 l0 -166 76 0 c88 0 134 17 166 63 29 40 36 132 15 173
-34 66 -82 89 -194 93 l-63 2 0 -165z m135 128 c40 0 50 -3 49 -16 -1 -9 4
-14 10 -12 25 9 50 -35 51 -89 2 -62 -16 -111 -47 -131 -31 -20 -98 -32 -98
-17 0 6 6 8 14 5 8 -3 17 -1 20 5 4 6 14 7 23 4 11 -4 14 -3 9 5 -4 7 -2 12 4
12 17 0 48 78 44 111 -2 17 -13 44 -25 60 -12 17 -18 37 -15 47 5 15 4 15 -8
-1 -8 -10 -16 -13 -18 -7 -2 6 -22 12 -44 15 l-41 4 -1 -124 c-1 -84 2 -124
10 -122 6 1 12 -3 15 -9 2 -7 -9 -11 -29 -10 l-33 1 -3 137 -3 137 28 3 c16 2
30 1 33 -2 3 -3 28 -5 55 -6z m8 -45 c50 -23 63 -109 25 -153 -13 -15 -38 -29
-55 -32 l-33 -6 0 101 c0 94 1 101 20 101 10 0 30 -5 43 -11z"/>
<path d="M4380 2021 c0 -6 4 -13 10 -16 6 -3 7 1 4 9 -7 18 -14 21 -14 7z"/>
<path d="M4385 1871 c-3 -5 -2 -12 3 -15 5 -3 9 1 9 9 0 17 -3 19 -12 6z"/>
<path d="M4516 2094 c-31 -30 -8 -69 36 -62 26 3 37 41 18 64 -16 18 -35 18
-54 -2z m37 -30 c-6 -16 -16 -11 -19 11 -1 8 4 11 11 8 8 -2 11 -11 8 -19z"/>
<path d="M4946 2091 c-34 -38 26 -85 62 -49 16 16 15 33 -4 52 -21 21 -37 20
-58 -3z m47 -14 c7 4 6 -1 -2 -10 -16 -20 -33 -13 -24 10 4 11 8 13 11 5 2 -7
9 -9 15 -5z"/>
<path d="M5540 1945 l0 -165 40 0 40 0 0 165 0 165 -40 0 -40 0 0 -165z m50
-7 c0 -110 -3 -139 -12 -130 -15 15 -20 212 -6 230 6 7 7 12 1 12 -5 0 -10 7
-10 15 0 8 6 15 14 15 10 0 13 -30 13 -142z"/>
<path d="M5895 2100 c-3 -5 -29 -79 -58 -165 l-53 -155 43 0 c37 0 43 3 49 25
6 23 10 25 69 25 59 0 63 -2 69 -25 6 -22 12 -25 50 -25 l44 0 -57 164 -56
164 -47 0 c-26 1 -50 -3 -53 -8z m87 -25 c3 3 5 -1 6 -7 1 -18 7 -37 23 -78 7
-19 12 -39 11 -44 -2 -5 2 -12 8 -16 7 -4 12 -24 13 -44 1 -20 4 -36 8 -36 7
0 21 -42 15 -47 -1 -2 -16 8 -32 22 -16 14 -39 25 -52 25 -13 0 -20 4 -17 10
4 6 10 8 15 5 5 -3 19 9 31 27 12 18 19 30 14 26 -4 -4 -14 0 -21 10 -17 22
-18 55 -1 47 6 -4 4 0 -5 8 -10 8 -18 20 -18 28 0 8 -7 23 -15 33 -15 19 -15
19 -35 -2 -11 -11 -20 -30 -20 -41 0 -11 -5 -23 -10 -26 -6 -4 -8 -10 -5 -15
3 -4 -1 -20 -9 -35 -12 -23 -12 -29 1 -45 9 -10 23 -15 34 -13 11 3 19 0 19
-6 0 -6 -10 -9 -22 -7 -14 2 -33 -5 -46 -17 -20 -18 -25 -19 -33 -7 -8 11 -9
9 -4 -10 6 -20 5 -23 -5 -13 -10 10 -10 18 0 45 7 18 20 41 28 51 11 12 12 17
3 17 -9 0 -6 12 8 36 12 19 19 39 16 44 -3 5 -1 11 5 15 6 4 7 11 4 17 -4 7
-2 8 4 4 8 -5 11 1 9 16 -1 17 3 23 16 22 9 -1 17 2 17 7 0 6 8 6 19 0 10 -6
20 -8 23 -6z m1 -166 c6 -23 4 -24 -39 -24 -35 0 -44 3 -41 15 3 8 13 44 23
79 l18 65 17 -56 c9 -30 19 -66 22 -79z"/>
<path d="M6021 1864 c0 -11 3 -14 6 -6 3 7 2 16 -1 19 -3 4 -6 -2 -5 -13z"/>
<path d="M6840 2042 c0 -62 -1 -64 -18 -49 -10 10 -35 17 -55 17 -81 0 -129
-112 -80 -188 31 -49 120 -63 143 -23 9 15 9 14 10 -1 0 -14 8 -18 35 -18 l35
0 0 164 0 164 -35 0 -35 0 0 -66z m47 -28 c1 -31 -2 -54 -8 -54 -6 0 -7 4 -4
10 3 6 -1 7 -10 4 -14 -6 -14 -8 3 -20 15 -10 18 -24 17 -66 -2 -29 -4 -54 -5
-55 -1 -2 -3 -8 -4 -15 0 -6 -8 -13 -16 -16 -8 -3 -12 -1 -8 3 4 4 0 14 -10
22 -12 10 -13 13 -2 11 8 -2 15 2 15 7 1 6 5 17 9 26 4 9 0 34 -8 54 -12 28
-13 41 -5 51 6 8 8 14 5 14 -4 0 -4 6 1 13 4 6 6 22 4 34 -3 25 7 48 17 38 4
-4 8 -31 9 -61z m-117 -32 c0 -17 -23 -32 -35 -22 -8 6 -10 1 -9 -20 1 -17 -2
-27 -7 -24 -17 10 -9 -41 11 -73 12 -20 25 -31 34 -27 8 3 16 1 20 -4 3 -5 -3
-9 -12 -10 -26 -1 -62 20 -62 35 0 8 -4 12 -9 9 -5 -3 -7 20 -6 51 2 45 7 61
25 75 23 19 50 24 50 10z m66 -69 c10 -37 -15 -78 -46 -78 -52 0 -67 96 -17
114 29 11 55 -3 63 -36z"/>
<path d="M3880 2040 c0 -18 -5 -30 -13 -30 -8 0 -14 -12 -14 -30 0 -18 6 -30
14 -30 10 0 13 -19 13 -73 0 -84 8 -97 62 -97 35 0 38 2 38 29 0 16 -6 31 -15
35 -11 4 -15 20 -15 56 0 38 4 50 15 50 10 0 15 10 15 30 0 21 -5 30 -16 30
-13 0 -15 7 -10 30 5 29 5 30 -34 30 -38 0 -40 -2 -40 -30z m50 -16 c0 -8 7
-23 16 -32 14 -13 14 -17 2 -26 -22 -17 -23 -104 -2 -127 22 -25 6 -46 -22
-31 -16 8 -19 22 -18 80 0 39 -3 69 -7 67 -12 -8 -20 28 -9 39 8 8 13 7 20 -4
7 -12 9 -10 7 7 0 12 -5 19 -9 17 -10 -6 -11 10 -1 19 11 12 23 8 23 -9z"/>
<path d="M3920 1830 c-9 -6 -10 -10 -3 -10 6 0 15 5 18 10 8 12 4 12 -15 0z"/>
<path d="M5090 2040 c0 -20 -5 -30 -15 -30 -10 0 -15 -10 -15 -30 0 -20 5 -30
15 -30 12 0 15 -15 15 -73 0 -84 8 -97 62 -97 36 0 38 2 38 30 0 20 -5 30 -15
30 -12 0 -15 13 -15 55 0 42 3 55 15 55 10 0 15 10 15 30 0 20 -5 30 -15 30
-10 0 -15 10 -15 30 0 28 -3 30 -35 30 -32 0 -35 -2 -35 -30z m47 -31 c-3 -10
0 -17 5 -16 6 1 12 -6 13 -15 4 -20 -11 -25 -17 -6 -3 7 -7 5 -11 -6 -4 -10
-3 -15 3 -11 13 8 13 -95 0 -115 -6 -9 -5 -19 3 -29 10 -11 9 -13 -3 -9 -11 3
-15 21 -16 67 -1 34 -7 74 -15 87 -11 22 -11 27 1 34 8 6 11 10 7 10 -4 0 -3
9 3 20 13 24 34 16 27 -11z m26 -201 c-2 -4 -10 -2 -17 5 -8 6 -12 15 -9 19 2
4 10 2 17 -5 8 -6 12 -15 9 -19z"/>
<path d="M6365 2011 c-3 -5 -2 -12 3 -15 5 -3 9 1 9 9 0 17 -3 19 -12 6z"/>
<path d="M2630 1895 l0 -115 40 0 39 0 3 82 c3 72 6 83 22 86 28 6 36 -15 36
-95 l0 -73 35 0 34 0 3 83 c3 80 4 82 28 82 24 0 25 -2 28 -82 l3 -83 40 0 41
0 -4 94 c-2 75 -7 98 -22 115 -22 24 -73 28 -101 7 -17 -12 -22 -12 -39 0 -62
43 -130 -17 -133 -115 -2 -83 -2 -85 -10 -77 -4 4 -8 45 -9 92 -2 64 1 84 11
84 7 0 15 -6 18 -12 2 -7 6 -1 9 15 5 26 3 27 -33 27 l-39 0 0 -115z m176 80
c12 -8 25 -11 29 -7 4 4 2 -4 -6 -18 -7 -14 -14 -51 -14 -82 0 -78 -19 -74
-23 4 -5 96 -5 96 -25 92 -15 -3 -17 -1 -7 11 15 19 20 19 46 0z m132 -1 c4
-4 -2 -4 -13 0 -14 5 -11 -1 10 -18 17 -14 25 -25 19 -26 -8 0 -10 -11 -5 -32
9 -46 2 -100 -12 -95 -8 2 -12 29 -12 74 0 39 -3 69 -7 66 -5 -2 -8 0 -8 6 0
5 -9 13 -20 16 -11 4 -18 10 -15 14 5 10 54 6 63 -5z"/>
<path d="M3040 1850 l0 -160 35 0 35 0 0 54 0 54 30 -15 c24 -11 37 -12 64 -3
50 16 69 43 74 105 4 52 3 56 -31 90 -39 39 -93 48 -121 19 -15 -14 -16 -14
-16 0 0 12 -10 16 -35 16 l-35 0 0 -160z m134 138 c-5 -8 -2 -9 9 -5 10 3 17
3 17 -2 0 -4 12 -13 26 -19 14 -7 22 -17 19 -22 -3 -6 -2 -10 2 -10 5 0 8 -18
8 -40 0 -25 -4 -40 -12 -40 -7 0 -10 -6 -7 -14 3 -8 1 -17 -5 -21 -6 -3 -11 0
-11 7 0 8 -5 6 -11 -5 -6 -9 -15 -15 -20 -11 -6 3 0 16 13 29 48 48 51 54 33
71 -9 9 -14 23 -11 31 3 8 1 11 -4 8 -6 -3 -10 -1 -10 5 0 6 -14 16 -31 22
-23 8 -27 13 -17 19 18 12 20 11 12 -3z m-75 -16 c12 -12 12 -17 -1 -40 -17
-30 -17 -67 0 -84 8 -8 7 -15 -6 -25 -16 -14 -16 -14 3 -8 16 5 18 4 8 -6 -7
-7 -13 -28 -13 -45 0 -38 -19 -57 -22 -22 -4 69 -2 128 6 128 5 0 3 6 -3 14
-10 11 -10 20 -1 37 7 12 8 19 2 16 -5 -4 -9 6 -8 22 1 31 11 35 35 13z m101
-52 c14 -34 -4 -83 -33 -88 -48 -9 -76 69 -38 107 25 25 56 17 71 -19z"/>
<path d="M3349 1981 c-57 -58 -38 -166 35 -196 44 -19 84 -7 103 30 30 56 33
65 25 65 -4 0 -8 9 -8 20 0 11 4 20 9 20 5 0 1 7 -8 16 -20 20 -15 36 11 40
17 3 19 -3 18 -54 -2 -121 -2 -124 -24 -117 -14 5 -20 2 -20 -9 0 -12 10 -16
35 -16 l35 0 0 115 0 115 -35 0 c-26 0 -35 -4 -35 -17 0 -15 -1 -15 -18 0 -30
28 -89 22 -123 -12z m81 -3 c0 -4 -4 -8 -9 -8 -24 0 -56 -46 -56 -82 0 -20 4
-34 9 -30 5 3 6 -3 2 -14 -4 -10 -4 -16 -1 -12 10 9 45 -24 38 -35 -3 -6 -12
-2 -20 8 -7 11 -13 15 -13 10 0 -4 -8 -1 -18 8 -14 13 -18 30 -17 72 1 49 4
58 28 74 29 19 57 23 57 9z m54 -66 c10 -36 -13 -82 -41 -82 -48 0 -70 73 -33
110 27 27 62 13 74 -28z"/>
<path d="M3644 1976 c-28 -28 -34 -41 -34 -77 0 -26 8 -57 19 -75 33 -54 122
-68 178 -29 l21 15 -21 24 c-20 22 -23 23 -44 8 -51 -33 -103 30 -69 83 17 26
59 34 71 14 7 -10 55 26 55 41 0 14 -52 30 -96 30 -39 0 -51 -5 -80 -34z m96
3 c0 -6 -4 -8 -9 -5 -4 3 -16 -3 -26 -14 -20 -22 -51 -28 -39 -7 4 6 3 9 -1 4
-5 -4 -10 -18 -12 -30 -2 -17 -1 -19 7 -7 6 9 10 10 10 3 0 -6 -7 -18 -15 -27
-20 -19 -19 -27 2 -19 11 5 14 3 8 -6 -5 -8 4 -23 23 -40 30 -28 59 -32 73 -9
6 10 11 10 20 1 10 -10 9 -13 -2 -17 -32 -12 -69 -14 -75 -5 -3 5 -8 7 -12 5
-4 -2 -16 2 -27 10 -10 8 -15 14 -9 14 5 0 3 4 -4 9 -23 14 -23 87 0 116 11
14 27 24 34 21 8 -3 14 -2 14 2 0 4 9 8 20 9 11 1 20 -3 20 -8z m32 -3 c7 4 8
2 4 -5 -9 -13 -26 -5 -25 12 0 9 2 8 6 -1 2 -6 10 -9 15 -6z"/>
<path d="M4510 1895 l0 -115 35 0 35 0 0 115 0 115 -35 0 -35 0 0 -115z m39
68 c-8 -9 -9 -14 -3 -10 8 4 11 -17 12 -68 1 -41 -3 -77 -8 -80 -6 -4 -11 6
-11 22 -1 15 -2 53 -4 83 -2 59 0 70 17 70 6 0 5 -7 -3 -17z"/>
<path d="M4671 1984 c-36 -30 -48 -80 -32 -134 18 -59 84 -91 134 -65 23 12
27 12 27 0 0 -8 -12 -22 -26 -32 -24 -16 -30 -16 -70 -1 -40 14 -45 14 -59 -2
-21 -23 -20 -26 25 -44 76 -30 165 -12 189 40 6 14 11 76 11 144 l0 120 -35 0
c-19 0 -35 -5 -35 -10 0 -7 -6 -7 -19 0 -34 18 -78 11 -110 -16z m84 -3 c-11
-5 -23 -7 -26 -5 -4 2 -15 -6 -25 -17 -18 -20 -23 -70 -11 -116 3 -13 2 -23
-2 -23 -16 0 -33 30 -28 50 3 11 2 20 -2 20 -13 0 1 61 15 67 8 3 11 10 7 16
-3 5 -2 7 3 4 6 -3 15 -2 21 1 7 4 25 8 40 9 23 1 25 0 8 -6z m84 -21 c-7 -5
-8 -10 -1 -14 14 -8 12 -117 -2 -135 -8 -11 -8 -13 2 -7 8 5 12 -1 12 -18 0
-16 -6 -26 -15 -26 -8 0 -15 -5 -15 -11 0 -5 5 -7 12 -3 7 4 8 3 4 -5 -4 -6
-11 -9 -16 -6 -4 3 -13 -2 -20 -10 -7 -8 -18 -15 -24 -15 -6 0 -4 5 4 10 8 5
11 10 5 10 -5 0 1 7 13 16 22 15 31 64 12 64 -5 0 -10 5 -10 11 0 5 4 7 10 4
6 -3 7 1 4 9 -3 9 -2 16 3 16 15 0 5 92 -12 107 -4 4 -5 2 0 -6 5 -9 4 -12 -3
-7 -6 4 -9 13 -6 21 4 8 10 12 15 9 5 -3 9 0 9 7 0 8 4 8 15 -1 12 -10 13 -15
4 -20z m-41 -62 c3 -39 -17 -68 -47 -68 -46 0 -60 80 -21 112 20 16 25 17 44
5 13 -9 22 -27 24 -49z m-43 -90 l20 2 -20 -9 c-11 -5 -25 -5 -31 0 -6 5 -15
5 -19 1 -5 -4 -5 -1 -1 6 4 7 13 9 19 5 7 -4 21 -7 32 -5z m-60 -86 c-3 -3
-11 0 -18 7 -9 10 -8 11 6 5 10 -3 15 -9 12 -12z"/>
<path d="M4670 1861 c0 -6 4 -13 10 -16 6 -3 7 1 4 9 -7 18 -14 21 -14 7z"/>
<path d="M4940 1895 l0 -115 38 0 37 0 0 115 0 115 -37 0 -38 0 0 -115z m50
75 c0 -5 -6 -10 -12 -11 -10 0 -10 -2 0 -6 15 -6 17 -139 2 -148 -10 -6 -18
113 -11 168 2 11 21 9 21 -3z"/>
<path d="M5268 1981 c-30 -27 -33 -35 -33 -85 0 -49 4 -59 31 -87 38 -38 91
-43 125 -13 20 17 22 17 16 2 -5 -15 0 -18 33 -18 l40 0 0 115 0 115 -40 0
c-41 0 -49 -7 -28 -28 16 -16 31 -15 22 1 -4 6 0 5 7 -3 11 -11 14 -36 11 -97
-3 -77 -5 -82 -22 -71 -10 7 -16 16 -14 20 3 5 10 5 16 2 7 -4 8 -2 4 5 -4 6
-12 8 -18 5 -5 -4 -4 4 3 17 17 33 19 101 2 87 -12 -10 -17 -4 -14 16 1 5 -6
17 -15 27 -27 30 -87 25 -126 -10z m79 6 c0 -8 -6 -14 -14 -14 -17 0 -17 14 0
20 6 3 12 6 13 6 0 1 1 -5 1 -12z m-37 -20 c0 -7 -5 -18 -12 -25 -16 -16 -11
-89 7 -115 9 -12 18 -21 20 -19 3 2 11 1 18 -2 18 -8 -35 1 -55 9 -10 4 -18
11 -18 16 0 18 -2 24 -12 36 -6 8 -6 18 1 31 6 11 8 22 5 25 -7 7 26 57 37 57
5 0 9 -6 9 -13z m88 -71 c4 -41 -11 -66 -39 -66 -48 0 -69 85 -27 114 32 23
62 1 66 -48z"/>
<path d="M6164 1976 c-30 -30 -34 -40 -34 -86 0 -43 5 -56 28 -80 37 -36 91
-47 140 -28 42 16 44 23 20 57 -15 22 -18 22 -33 7 -22 -21 -41 -20 -65 4 -25
25 -26 62 -2 83 21 19 58 22 67 6 7 -10 55 26 55 41 0 14 -52 30 -96 30 -39 0
-51 -5 -80 -34z m96 4 c27 8 40 5 40 -9 0 -3 -18 -5 -40 -5 -39 2 -70 -15 -70
-37 0 -6 -4 -8 -8 -5 -13 8 -8 -48 6 -62 7 -8 10 -17 7 -21 -2 -5 8 -14 23
-21 24 -12 25 -14 8 -18 -11 -2 -25 3 -31 12 -7 9 -16 12 -20 8 -5 -4 -5 1 -2
10 4 11 2 17 -6 15 -8 -1 -11 13 -10 46 1 51 26 92 50 83 7 -3 13 0 14 7 0 9
2 9 5 0 4 -8 14 -9 34 -3z m50 -158 c0 -14 -48 -33 -55 -22 -4 6 3 10 14 10
11 0 23 5 26 10 8 12 15 13 15 2z"/>
<path d="M6410 1981 c-16 -16 -32 -40 -36 -55 -17 -71 34 -147 100 -149 41 -1
85 30 64 46 -9 6 -8 7 5 3 11 -3 17 -1 16 7 -1 6 1 25 6 40 5 19 3 38 -6 55
-7 15 -13 32 -14 38 -2 51 -90 61 -135 15z m59 -17 c-26 -13 -35 -12 -24 5 3
6 11 9 16 6 5 -4 9 -1 9 5 0 6 5 8 11 4 8 -4 3 -11 -12 -20z m-41 -46 c1 -29
2 -60 3 -69 1 -16 51 -52 63 -44 3 3 3 2 0 -2 -8 -11 -27 -10 -41 2 -7 5 -19
15 -27 22 -7 6 -16 10 -18 8 -9 -10 -8 83 1 108 6 15 12 27 14 27 2 0 4 -24 5
-52z m111 3 c18 -33 -7 -91 -40 -91 -28 0 -49 28 -49 65 0 61 61 79 89 26z"/>
<path d="M6546 1996 c3 -8 15 -16 26 -18 18 -3 21 -11 23 -58 2 -76 -8 -116
-27 -112 -9 1 -18 -4 -22 -13 -4 -12 3 -15 34 -15 l40 0 0 115 0 115 -40 0
c-30 0 -38 -3 -34 -14z"/>
<path d="M6999 1982 c-38 -34 -50 -102 -26 -149 21 -41 78 -67 130 -60 40 5
87 33 94 54 7 19 -38 26 -79 12 -44 -14 -70 -5 -76 25 -3 16 5 17 82 14 86 -3
86 -3 86 22 0 35 -35 89 -66 100 -51 20 -111 12 -145 -18z m67 -4 c-24 -13
-56 -46 -55 -55 0 -5 5 -13 9 -18 5 -6 5 -17 0 -24 -9 -16 -2 -42 14 -53 6 -4
1 -6 -11 -5 -21 1 -32 19 -37 60 -2 12 2 16 13 12 11 -4 10 0 -4 15 -16 18
-17 20 -2 14 13 -5 16 -2 11 9 -7 20 25 52 56 54 22 2 23 1 6 -9z m93 -20 c24
-25 28 -34 19 -45 -9 -11 -13 -11 -19 -1 -4 6 -6 15 -3 19 2 4 -3 10 -12 13
-9 4 -14 9 -10 13 3 4 -6 12 -21 19 -25 11 -25 12 -7 13 12 1 36 -13 53 -31z
m-36 -20 l22 -23 -33 -3 c-18 -2 -45 -2 -60 0 l-27 3 23 23 c12 12 29 22 37
22 8 0 25 -10 38 -22z m25 -120 c-3 -7 -13 -15 -24 -17 -16 -3 -17 -1 -5 13
16 19 34 21 29 4z m-48 -18 c0 -5 -2 -10 -4 -10 -3 0 -8 5 -11 10 -3 6 -1 10
4 10 6 0 11 -4 11 -10z"/>
<path d="M7260 1895 l0 -115 35 0 35 0 0 74 c0 77 13 104 45 92 12 -4 15 -23
15 -86 l0 -80 40 0 40 0 0 80 c0 63 3 82 15 86 33 13 47 -16 43 -93 l-3 -73
38 0 37 0 0 95 c0 82 -3 98 -20 115 -24 24 -67 26 -98 4 -21 -15 -25 -15 -41
0 -22 20 -60 20 -89 0 -20 -14 -22 -14 -22 0 0 12 -10 16 -35 16 l-35 0 0
-115z m167 75 c14 -11 30 -17 36 -13 6 3 7 1 3 -6 -4 -6 -11 -9 -15 -6 -5 2
-7 -11 -5 -29 2 -27 -1 -33 -14 -31 -12 2 -16 10 -14 30 2 19 -3 32 -18 42
-11 8 -18 19 -15 24 9 13 14 12 42 -11z m138 6 c17 -12 18 -16 5 -32 -10 -11
-10 -15 -2 -10 10 6 11 -7 6 -61 -6 -72 -14 -96 -15 -47 -1 87 -7 108 -32 130
-27 23 -26 25 14 33 3 0 14 -5 24 -13z m-248 -7 c15 -15 5 -39 -16 -39 -10 0
-12 -3 -5 -8 13 -9 13 -107 -1 -107 -6 0 -10 28 -10 63 -1 34 3 62 8 62 5 0 4
6 -2 13 -18 23 5 37 26 16z m123 -129 c0 -16 -4 -30 -9 -30 -12 0 -19 21 -13
43 7 28 22 20 22 -13z"/>
<path d="M7672 1898 c21 -62 41 -114 43 -117 2 -2 -2 -19 -10 -38 -21 -50 -20
-53 23 -53 l37 0 53 153 c28 85 52 157 52 160 0 4 -17 7 -38 7 l-38 0 -17 -64
c-9 -35 -17 -75 -18 -88 -1 -27 -1 -25 -25 75 l-18 77 -42 0 -42 0 40 -112z
m32 50 c-3 -4 0 -9 5 -13 6 -3 8 -12 5 -19 -3 -8 -1 -17 4 -20 6 -3 8 -15 5
-26 -3 -12 0 -20 6 -20 7 0 9 -4 6 -10 -3 -5 3 -10 15 -10 11 0 24 8 27 18 4
9 11 20 17 24 7 5 7 8 -1 8 -15 0 -16 9 -4 29 5 7 14 10 20 7 6 -4 8 -13 4
-19 -4 -7 -8 -14 -9 -17 -5 -28 -18 -60 -23 -60 -4 0 -8 -12 -9 -27 -1 -15 -7
-32 -12 -37 -6 -6 -10 -19 -11 -31 0 -12 -3 -15 -6 -6 -5 11 -7 11 -15 0 -7
-10 -8 -8 -3 6 14 38 9 80 -18 137 -14 31 -24 66 -22 77 2 12 0 21 -4 21 -4 0
-8 7 -8 15 0 12 3 12 17 -3 10 -9 16 -20 14 -24z m128 7 c-5 -29 -18 -40 -27
-25 -3 5 -1 10 4 10 6 0 11 5 11 11 0 5 -6 7 -12 3 -9 -5 -9 -2 1 9 19 24 29
21 23 -8z"/>
<path d="M7789 1663 c-13 -16 -12 -17 4 -4 16 13 21 21 13 21 -2 0 -10 -8 -17
-17z"/>
</g>
</svg>
